<?xml version="1.0" encoding="UTF-8" standalone="no"?>
<!-- Created with Inkscape (http://www.inkscape.org/) -->

<svg
   xmlns:dc="http://purl.org/dc/elements/1.1/"
   xmlns:cc="http://creativecommons.org/ns#"
   xmlns:rdf="http://www.w3.org/1999/02/22-rdf-syntax-ns#"
   xmlns:svg="http://www.w3.org/2000/svg"
   xmlns="http://www.w3.org/2000/svg"
   xmlns:xlink="http://www.w3.org/1999/xlink"
   xmlns:sodipodi="http://sodipodi.sourceforge.net/DTD/sodipodi-0.dtd"
   xmlns:inkscape="http://www.inkscape.org/namespaces/inkscape"
   width="15.999999"
   height="15.999993"
   id="svg2"
   version="1.1"
   inkscape:version="0.48.2 r9819"
   sodipodi:docname="search.svg"
   inkscape:export-filename="search.png"
   inkscape:export-xdpi="90"
   inkscape:export-ydpi="90">
  <defs
     id="defs4">
    <linearGradient
       id="linearGradient3810">
      <stop
         style="stop-color:#86ff6c;stop-opacity:1;"
         offset="0"
         id="stop3812" />
      <stop
         style="stop-color:#0e5c00;stop-opacity:1;"
         offset="1"
         id="stop3814" />
    </linearGradient>
    <linearGradient
       inkscape:collect="always"
       xlink:href="#linearGradient3810-0"
       id="linearGradient3816-4"
       x1="174.01144"
       y1="677.08057"
       x2="363.91718"
       y2="602.32928"
       gradientUnits="userSpaceOnUse" />
    <linearGradient
       id="linearGradient3810-0">
      <stop
         style="stop-color:#ededed;stop-opacity:1;"
         offset="0"
         id="stop3812-9" />
      <stop
         style="stop-color:#005c0e;stop-opacity:1;"
         offset="1"
         id="stop3814-4" />
    </linearGradient>
    <linearGradient
       inkscape:collect="always"
       xlink:href="#linearGradient3865-2"
       id="linearGradient3871-8"
       x1="200.71426"
       y1="770.93365"
       x2="218.57141"
       y2="770.93365"
       gradientUnits="userSpaceOnUse"
       gradientTransform="matrix(1.88,0,0,1,-174.35571,0)" />
    <linearGradient
       id="linearGradient3865-2">
      <stop
         style="stop-color:#008000;stop-opacity:1;"
         offset="0"
         id="stop3867-4" />
      <stop
         style="stop-color:#ffffff;stop-opacity:1;"
         offset="1"
         id="stop3869-5" />
    </linearGradient>
    <linearGradient
       inkscape:collect="always"
       xlink:href="#linearGradient3865-2-2"
       id="linearGradient3913-2"
       x1="363.90854"
       y1="588.17773"
       x2="98.915176"
       y2="588.00812"
       gradientUnits="userSpaceOnUse"
       gradientTransform="matrix(0.05603501,0,0,0.05603501,79.244632,806.63714)" />
    <linearGradient
       id="linearGradient3865-2-2">
      <stop
         style="stop-color:#008000;stop-opacity:1;"
         offset="0"
         id="stop3867-4-5" />
      <stop
         style="stop-color:#ffffff;stop-opacity:1;"
         offset="1"
         id="stop3869-5-1" />
    </linearGradient>
    <linearGradient
       inkscape:collect="always"
       xlink:href="#linearGradient3865-2-2"
       id="linearGradient3989"
       x1="4.5625"
       y1="11.25"
       x2="2.3365486"
       y2="11.25"
       gradientUnits="userSpaceOnUse"
       gradientTransform="translate(103.46875,822.8125)" />
    <linearGradient
       inkscape:collect="always"
       xlink:href="#linearGradient3865-2-2-3"
       id="linearGradient3989-0"
       x1="4.5625"
       y1="11.25"
       x2="1.1875"
       y2="11.25"
       gradientUnits="userSpaceOnUse" />
    <linearGradient
       id="linearGradient3865-2-2-3">
      <stop
         style="stop-color:#008000;stop-opacity:1;"
         offset="0"
         id="stop3867-4-5-5" />
      <stop
         style="stop-color:#ffffff;stop-opacity:1;"
         offset="1"
         id="stop3869-5-1-9" />
    </linearGradient>
    <linearGradient
       gradientTransform="matrix(-1,0,0,1,115.5313,839.49999)"
       y2="11.294194"
       x2="6.1151505"
       y1="11.294194"
       x1="3.9437816"
       gradientUnits="userSpaceOnUse"
       id="linearGradient4006"
       xlink:href="#linearGradient3865-2-2-3"
       inkscape:collect="always" />
    <linearGradient
       inkscape:collect="always"
       xlink:href="#linearGradient3865-2-2-3"
       id="linearGradient3823"
       x1="102.34314"
       y1="845.65472"
       x2="98.311943"
       y2="845.65472"
       gradientUnits="userSpaceOnUse"
       gradientTransform="translate(-13.3125,1.15625)" />
    <linearGradient
       inkscape:collect="always"
       xlink:href="#linearGradient3865-2-2-3"
       id="linearGradient3849"
       x1="96.191147"
       y1="849.54199"
       x2="93.278137"
       y2="849.70514"
       gradientUnits="userSpaceOnUse"
       gradientTransform="translate(0.6875,-2.46875)" />
    <linearGradient
       inkscape:collect="always"
       xlink:href="#linearGradient3865-2-2-3"
       id="linearGradient3930"
       x1="8.9375"
       y1="7.6874933"
       x2="7.1875"
       y2="7.6874933"
       gradientUnits="userSpaceOnUse" />
  </defs>
  <sodipodi:namedview
     id="base"
     pagecolor="#ffffff"
     bordercolor="#666666"
     borderopacity="1.0"
     inkscape:pageopacity="0.0"
     inkscape:pageshadow="2"
     inkscape:zoom="4"
     inkscape:cx="53.904537"
     inkscape:cy="34.080037"
     inkscape:document-units="px"
     inkscape:current-layer="layer1"
     showgrid="false"
     fit-margin-top="0"
     fit-margin-left="0"
     fit-margin-right="0"
     fit-margin-bottom="0"
     inkscape:window-width="1920"
     inkscape:window-height="1028"
     inkscape:window-x="-8"
     inkscape:window-y="-8"
     inkscape:window-maximized="1" />
  <metadata
     id="metadata7">
    <rdf:RDF>
      <cc:Work
         rdf:about="">
        <dc:format>image/svg+xml</dc:format>
        <dc:type
           rdf:resource="http://purl.org/dc/dcmitype/StillImage" />
        <dc:title />
      </cc:Work>
    </rdf:RDF>
  </metadata>
  <g
     inkscape:label="Layer 1"
     inkscape:groupmode="layer"
     id="layer1"
     transform="translate(-84.25,-838.21875)">
    <path
       style="fill:url(#linearGradient3849);fill-opacity:1;stroke:none"
       d="m 98.937418,841.71875 0.90636,2.6875 0,9.31249 -4,0 0,-4.9844 -1.999945,-0.0312 -1.1e-4,-6.98439 1,0 1.1e-4,-3 3,0 -1.1e-4,3 z"
       id="path3011-1-6"
       inkscape:connector-curvature="0"
       sodipodi:nodetypes="cccccccccccc" />
    <path
       style="fill:url(#linearGradient3823);fill-opacity:1;stroke:none"
       d="m 85.624496,841.62349 -0.90636,2.6875 0,9.31249 4.000004,0 0,-4.9844 1.99994,-0.0312 1.1e-4,-6.98439 -1,0 -1.1e-4,-3 -3,0 1.1e-4,3 z"
       id="path3011-7"
       inkscape:connector-curvature="0"
       sodipodi:nodetypes="cccccccccccc" />
    <path
       style="fill:#ffffff;fill-opacity:0.34008095;fill-rule:nonzero;stroke:none"
       d="M 0.96875 4 L 0.96875 6 L 6.40625 6 L 6.4375 4 L 0.96875 4 z M 9.53125 4 L 9.625 6 L 15.28125 6 L 15.28125 4 L 9.53125 4 z M 0.8125 11 L 0.8125 15.125 L 4.59375 15.125 L 4.46875 11 L 0.8125 11 z M 11.59375 11 L 11.5625 15.125 L 15.125 15.125 L 15.125 11 L 11.59375 11 z "
       transform="translate(84.25,838.21875)"
       id="rect4046-2-7-1" />
    <rect
       style="fill:url(#linearGradient3930);fill-opacity:1;fill-rule:nonzero;stroke:none"
       id="rect3922"
       width="2.5625"
       height="4.875"
       x="6.8125"
       y="4.6249933"
       transform="translate(84.25,838.21875)" />
    <path
       style="fill:#373737;fill-opacity:1;fill-rule:nonzero;stroke:none"
       d="M 2 0 L 2 0.5 L 2 3 L 1.40625 3 L 1.0625 3 L 0.9375 3.34375 L 0.03125 6.03125 L 0 6.09375 L 0 6.1875 L 0 15.5 L 0 16 L 0.5 16 L 4.5 16 L 5 16 L 5 15.5 L 5 11 L 6.5 10.96875 L 7 10.96875 L 7 10.5 L 7 10 L 9 10 L 9 10.5 L 9 10.96875 L 9.5 10.96875 L 11 11 L 11 15.5 L 11 16 L 11.5 16 L 15.5 16 L 16 16 L 16 15.5 L 16 6.1875 L 16 6.09375 L 15.96875 6.03125 L 15.0625 3.34375 L 14.9375 3 L 14.59375 3 L 14 3 L 14 0.5 L 14 0 L 13.5 0 L 10.5 0 L 10 0 L 10 0.5 L 10 3 L 9.5 3 L 9 3 L 9 3.5 L 9 4 L 7 4 L 7 3.5 L 7 3 L 6.5 3 L 6 3 L 6 0.5 L 6 0 L 5.5 0 L 2.5 0 L 2 0 z M 3 1 L 5 1 L 5 3.5 L 5 4 L 5.5 4 L 6 4 L 6 10 L 4.5 10.03125 L 4 10.03125 L 4 10.5 L 4 15 L 1 15 L 1 6.25 L 1.75 4 L 2.5 4 L 3 4 L 3 3.5 L 3 1 z M 11 1 L 13 1 L 13 3.5 L 13 4 L 13.5 4 L 14.25 4 L 15 6.25 L 15 15 L 12 15 L 12 10.5 L 12 10.03125 L 11.5 10.03125 L 10 10 L 10 4 L 10.5 4 L 11 4 L 11 3.5 L 11 1 z M 7 5 L 9 5 L 9 9 L 7 9 L 7 5 z "
       transform="translate(84.25,838.21875)"
       id="rect4046" />
    <path
       style="fill:#808080;fill-opacity:1;fill-rule:nonzero;stroke:none"
       d="m 86.25,838.2188 0,0.5 0,2.5 -0.59375,0 -0.34375,0 -0.125,0.34375 -0.90625,2.6875 -0.03125,0.0625 0,0.0937 0,9.3125 0,0.5 1,-1 0,-8.75 0.75,-2.25 0.75,0 0.5,0 0,-0.5 0,-2.5 2,0 1,-1 -0.5,0 -3,0 z m 8,0 0,0.5 0,2.5 -0.5,0 -0.5,0 0,0.5 0,0.5 -2,0 0,-0.5 0,-0.5 -0.5,0 -0.5,0 0,1 1.000185,0.0279 -1.85e-4,0.97209 2,0 0,4 0,1 0,0.5 0,0.46875 1,-0.96875 0,-6 0.5,0 0.5,0 0,-0.5 0,-2.5 2,0 1,-1 -0.5,0 -3,0 z m 3,4 0.5,0 0.75,0 0.6875,-1 -0.34375,0 -0.59375,0 z"
       id="rect4046-4"
       inkscape:connector-curvature="0"
       sodipodi:nodetypes="ccccccccccccccccccccccccccccccccccccccccccccccccccccccccccccc" />
  </g>
</svg>
