<?xml version="1.0" encoding="UTF-8" standalone="no"?>
<!-- Created with Inkscape (http://www.inkscape.org/) -->

<svg
   xmlns:dc="http://purl.org/dc/elements/1.1/"
   xmlns:cc="http://creativecommons.org/ns#"
   xmlns:rdf="http://www.w3.org/1999/02/22-rdf-syntax-ns#"
   xmlns:svg="http://www.w3.org/2000/svg"
   xmlns="http://www.w3.org/2000/svg"
   xmlns:xlink="http://www.w3.org/1999/xlink"
   xmlns:sodipodi="http://sodipodi.sourceforge.net/DTD/sodipodi-0.dtd"
   xmlns:inkscape="http://www.inkscape.org/namespaces/inkscape"
   width="15.999999"
   height="15.999993"
   id="svg2"
   version="1.1"
   inkscape:version="0.48.2 r9819"
   sodipodi:docname="set.svg"
   inkscape:export-filename="set.png"
   inkscape:export-xdpi="90"
   inkscape:export-ydpi="90">
  <defs
     id="defs4">
    <linearGradient
       id="linearGradient3810">
      <stop
         style="stop-color:#86ff6c;stop-opacity:1;"
         offset="0"
         id="stop3812" />
      <stop
         style="stop-color:#0e5c00;stop-opacity:1;"
         offset="1"
         id="stop3814" />
    </linearGradient>
    <linearGradient
       inkscape:collect="always"
       xlink:href="#linearGradient3810-0"
       id="linearGradient3816-4"
       x1="174.01144"
       y1="677.08057"
       x2="363.91718"
       y2="602.32928"
       gradientUnits="userSpaceOnUse" />
    <linearGradient
       id="linearGradient3810-0">
      <stop
         style="stop-color:#ededed;stop-opacity:1;"
         offset="0"
         id="stop3812-9" />
      <stop
         style="stop-color:#005c0e;stop-opacity:1;"
         offset="1"
         id="stop3814-4" />
    </linearGradient>
    <linearGradient
       inkscape:collect="always"
       xlink:href="#linearGradient3865-2"
       id="linearGradient3871-8"
       x1="200.71426"
       y1="770.93365"
       x2="218.57141"
       y2="770.93365"
       gradientUnits="userSpaceOnUse"
       gradientTransform="matrix(1.88,0,0,1,-174.35571,0)" />
    <linearGradient
       id="linearGradient3865-2">
      <stop
         style="stop-color:#008000;stop-opacity:1;"
         offset="0"
         id="stop3867-4" />
      <stop
         style="stop-color:#ffffff;stop-opacity:1;"
         offset="1"
         id="stop3869-5" />
    </linearGradient>
    <linearGradient
       inkscape:collect="always"
       xlink:href="#linearGradient3865-2-2"
       id="linearGradient3913-2"
       x1="363.90854"
       y1="588.17773"
       x2="98.915176"
       y2="588.00812"
       gradientUnits="userSpaceOnUse"
       gradientTransform="matrix(0.05603501,0,0,0.05603501,79.244632,806.63714)" />
    <linearGradient
       id="linearGradient3865-2-2">
      <stop
         style="stop-color:#008000;stop-opacity:1;"
         offset="0"
         id="stop3867-4-5" />
      <stop
         style="stop-color:#ffffff;stop-opacity:1;"
         offset="1"
         id="stop3869-5-1" />
    </linearGradient>
    <linearGradient
       inkscape:collect="always"
       xlink:href="#linearGradient3865-2-2"
       id="linearGradient3869"
       x1="95.78125"
       y1="843.8125"
       x2="88.875"
       y2="843.65625"
       gradientUnits="userSpaceOnUse" />
    <linearGradient
       inkscape:collect="always"
       xlink:href="#linearGradient3865-2-2"
       id="linearGradient3952"
       x1="20.519068"
       y1="3.1221745"
       x2="25.403805"
       y2="15.23138"
       gradientUnits="userSpaceOnUse" />
    <linearGradient
       inkscape:collect="always"
       xlink:href="#linearGradient3865-2-2"
       id="linearGradient3007"
       gradientUnits="userSpaceOnUse"
       x1="20.519068"
       y1="3.1221745"
       x2="25.403805"
       y2="15.23138"
       gradientTransform="translate(68.25,838.21875)" />
    <linearGradient
       inkscape:collect="always"
       xlink:href="#linearGradient3865-2-2"
       id="linearGradient3013"
       gradientUnits="userSpaceOnUse"
       gradientTransform="translate(68.25,837.21875)"
       x1="20.519068"
       y1="3.1221745"
       x2="25.403805"
       y2="15.23138" />
  </defs>
  <sodipodi:namedview
     id="base"
     pagecolor="#ffffff"
     bordercolor="#666666"
     borderopacity="1.0"
     inkscape:pageopacity="0.0"
     inkscape:pageshadow="2"
     inkscape:zoom="15.999999"
     inkscape:cx="31.474114"
     inkscape:cy="9.8078283"
     inkscape:document-units="px"
     inkscape:current-layer="text3005"
     showgrid="false"
     fit-margin-top="0"
     fit-margin-left="0"
     fit-margin-right="0"
     fit-margin-bottom="0"
     inkscape:window-width="1920"
     inkscape:window-height="1008"
     inkscape:window-x="0"
     inkscape:window-y="24"
     inkscape:window-maximized="1" />
  <metadata
     id="metadata7">
    <rdf:RDF>
      <cc:Work
         rdf:about="">
        <dc:format>image/svg+xml</dc:format>
        <dc:type
           rdf:resource="http://purl.org/dc/dcmitype/StillImage" />
        <dc:title></dc:title>
      </cc:Work>
    </rdf:RDF>
  </metadata>
  <g
     inkscape:label="Layer 1"
     inkscape:groupmode="layer"
     id="layer1"
     transform="translate(-84.25,-838.21875)">
    <g
       style="font-size:17.37135315000000091px;font-style:normal;font-weight:normal;line-height:125%;letter-spacing:0px;word-spacing:0px;fill:#373737;fill-opacity:1;stroke:none;font-family:Bitstream Vera Sans"
       id="text3005"
       transform="matrix(0.89427494,0,0,0.99805504,8.9073417,1.6831456)">
      <path
         d="m 90.95934,853.19505 0,1.00193 -0.52589,0 c -3.194943,0 -2.828824,-2.38679 -2.828824,-3.1299 l 0,-2.02722 c 0,-1.56306 -1.536196,-1.85656 -2.837264,-1.85656 l -0.517409,0 0,-2.0039 0.517409,0 c 1.76221,0 2.837264,-0.80262 2.837264,-1.85652 l 0,-2.03571 c 0,-2.02531 0.370652,-3.12141 2.828824,-3.12141 l 0.52589,0 0,1.00199 -0.576783,0 c -1.718385,0 -1.659668,1.05248 -1.659668,2.15358 l 0,2.10356 c 0,1.73948 -1.444795,2.75135 -2.739454,2.7565 1.273535,-0.008 2.739454,0.97087 2.739454,2.74839 l 0,2.10356 c 0,1.55635 0.310835,2.16167 1.659668,2.16167 l 0.576783,0"
         id="path3010"
         inkscape:connector-curvature="0"
         style="fill:#373737;fill-opacity:1"
         sodipodi:nodetypes="ccssssccssssccssscsssc" />
    </g>
    <path
       inkscape:connector-curvature="0"
       style="fill:#979797;fill-opacity:1;fill-rule:nonzero;stroke:none"
       d="m 91.25,838.21875 0,4 4,0 0,-4 z m 5,0 0,4 4,0 0,-4 z m -5,6 0,4 4,0 0,-4 z m 5,0 0,4 4,0 0,-4 z m -5,6 0,4 4,0 0,-4 z m 5,0 0,4 4,0 0,-4 z"
       id="rect3003"
       sodipodi:nodetypes="cccccccccccccccccccccccccccccc" />
    <path
       inkscape:connector-curvature="0"
       style="fill:#373737;fill-opacity:1;fill-rule:nonzero;stroke:none"
       d="m 91.25,842.21875 4,0 0,-4 z m 5,0 4,0 0,-4 z m -5,6 4,0 0,-4 z m 5,0 4,0 0,-4 z m -5,6 4,0 0,-4 z m 5,0 4,0 0,-4 z"
       id="rect3003-1"
       sodipodi:nodetypes="cccccccccccccccccccccccc" />
    <path
       sodipodi:nodetypes="cccccccccccccccccccccccccccccc"
       inkscape:connector-curvature="0"
       style="fill:url(#linearGradient3013);fill-opacity:1;fill-rule:nonzero;stroke:none"
       d="m 92.25,839.21875 0,2 2,0 0,-2 z m 5,0 0,2 2,0 0,-2 z m -5,6 0,2 2,0 0,-2 z m 5,0 0,2 2,0 0,-2 z m -5,6 0,2 2,0 0,-2 z m 5,0 0,2 2,0 0,-2 z"
       id="rect3003-7-51" />
  </g>
</svg>
