<?xml version="1.0" encoding="UTF-8" standalone="no"?>
<!-- Created with Inkscape (http://www.inkscape.org/) -->

<svg
   xmlns:dc="http://purl.org/dc/elements/1.1/"
   xmlns:cc="http://creativecommons.org/ns#"
   xmlns:rdf="http://www.w3.org/1999/02/22-rdf-syntax-ns#"
   xmlns:svg="http://www.w3.org/2000/svg"
   xmlns="http://www.w3.org/2000/svg"
   xmlns:xlink="http://www.w3.org/1999/xlink"
   xmlns:sodipodi="http://sodipodi.sourceforge.net/DTD/sodipodi-0.dtd"
   xmlns:inkscape="http://www.inkscape.org/namespaces/inkscape"
   width="15.999999"
   height="15.999993"
   id="svg2"
   version="1.1"
   inkscape:version="0.48.2 r9819"
   sodipodi:docname="view_list.svg"
   inkscape:export-filename="view_list.png"
   inkscape:export-xdpi="90"
   inkscape:export-ydpi="90">
  <defs
     id="defs4">
    <linearGradient
       id="linearGradient3810">
      <stop
         style="stop-color:#86ff6c;stop-opacity:1;"
         offset="0"
         id="stop3812" />
      <stop
         style="stop-color:#0e5c00;stop-opacity:1;"
         offset="1"
         id="stop3814" />
    </linearGradient>
    <linearGradient
       inkscape:collect="always"
       xlink:href="#linearGradient3810-0"
       id="linearGradient3816-4"
       x1="174.01144"
       y1="677.08057"
       x2="363.91718"
       y2="602.32928"
       gradientUnits="userSpaceOnUse" />
    <linearGradient
       id="linearGradient3810-0">
      <stop
         style="stop-color:#ededed;stop-opacity:1;"
         offset="0"
         id="stop3812-9" />
      <stop
         style="stop-color:#005c0e;stop-opacity:1;"
         offset="1"
         id="stop3814-4" />
    </linearGradient>
    <linearGradient
       inkscape:collect="always"
       xlink:href="#linearGradient3865-2"
       id="linearGradient3871-8"
       x1="200.71426"
       y1="770.93365"
       x2="218.57141"
       y2="770.93365"
       gradientUnits="userSpaceOnUse"
       gradientTransform="matrix(1.88,0,0,1,-174.35571,0)" />
    <linearGradient
       id="linearGradient3865-2">
      <stop
         style="stop-color:#008000;stop-opacity:1;"
         offset="0"
         id="stop3867-4" />
      <stop
         style="stop-color:#ffffff;stop-opacity:1;"
         offset="1"
         id="stop3869-5" />
    </linearGradient>
    <linearGradient
       inkscape:collect="always"
       xlink:href="#linearGradient3865-2-2"
       id="linearGradient3913-2"
       x1="363.90854"
       y1="588.17773"
       x2="98.915176"
       y2="588.00812"
       gradientUnits="userSpaceOnUse"
       gradientTransform="matrix(0.05603501,0,0,0.05603501,79.244632,806.63714)" />
    <linearGradient
       id="linearGradient3865-2-2">
      <stop
         style="stop-color:#008000;stop-opacity:1;"
         offset="0"
         id="stop3867-4-5" />
      <stop
         style="stop-color:#ffffff;stop-opacity:1;"
         offset="1"
         id="stop3869-5-1" />
    </linearGradient>
    <linearGradient
       inkscape:collect="always"
       xlink:href="#linearGradient3865-2-2"
       id="linearGradient3869"
       x1="95.78125"
       y1="843.8125"
       x2="88.875"
       y2="843.65625"
       gradientUnits="userSpaceOnUse" />
    <linearGradient
       inkscape:collect="always"
       xlink:href="#linearGradient3865-2-2"
       id="linearGradient3952"
       x1="20.519068"
       y1="3.1221745"
       x2="25.403805"
       y2="15.23138"
       gradientUnits="userSpaceOnUse" />
    <linearGradient
       inkscape:collect="always"
       xlink:href="#linearGradient3865-2-2"
       id="linearGradient3981"
       gradientUnits="userSpaceOnUse"
       x1="20.519068"
       y1="3.1221745"
       x2="25.403805"
       y2="15.23138" />
    <linearGradient
       inkscape:collect="always"
       xlink:href="#linearGradient3865-2-2"
       id="linearGradient3986"
       gradientUnits="userSpaceOnUse"
       x1="20.519068"
       y1="3.1221745"
       x2="25.403805"
       y2="15.23138"
       gradientTransform="translate(111.3125,843.1561)" />
  </defs>
  <sodipodi:namedview
     id="base"
     pagecolor="#ffffff"
     bordercolor="#666666"
     borderopacity="1.0"
     inkscape:pageopacity="0.0"
     inkscape:pageshadow="2"
     inkscape:zoom="31.999998"
     inkscape:cx="10.205297"
     inkscape:cy="8.2837894"
     inkscape:document-units="px"
     inkscape:current-layer="layer1"
     showgrid="false"
     fit-margin-top="0"
     fit-margin-left="0"
     fit-margin-right="0"
     fit-margin-bottom="0"
     inkscape:window-width="1920"
     inkscape:window-height="1008"
     inkscape:window-x="0"
     inkscape:window-y="24"
     inkscape:window-maximized="1" />
  <metadata
     id="metadata7">
    <rdf:RDF>
      <cc:Work
         rdf:about="">
        <dc:format>image/svg+xml</dc:format>
        <dc:type
           rdf:resource="http://purl.org/dc/dcmitype/StillImage" />
        <dc:title></dc:title>
      </cc:Work>
    </rdf:RDF>
  </metadata>
  <g
     inkscape:label="Layer 1"
     inkscape:groupmode="layer"
     id="layer1"
     transform="translate(-84.25,-838.21875)">
    <rect
       style="fill:#ffffff;fill-opacity:1;fill-rule:nonzero;stroke:none"
       id="rect3976"
       width="15.125001"
       height="15.062501"
       x="0.50000006"
       y="0.49999234"
       transform="translate(84.25,838.21875)" />
    <path
       style="fill:#cccccc;fill-opacity:1;fill-rule:nonzero;stroke:none"
       d="m 84.25,841.21874 0,1 3,0 0,-1 -3,0 z m 4,0 0,1 5,0 0,-1 -5,0 z m 6,0 0,1 2,0 0,-1 -2,0 z m 3,0 0,1 3,0 0,-1 -3,0 z m -13,2 0,1 3,0 0,-1 -3,0 z m 4,0 0,1 5,0 0,-1 -5,0 z m 6,0 0,1 2,0 0,-1 -2,0 z m 3,0 0,1 3,0 0,-1 -3,0 z m -13,2 0,1 3,0 0,-1 -3,0 z m 4,0 0,1 5,0 0,-1 -5,0 z m 6,0 0,1 2,0 0,-1 -2,0 z m 3,0 0,1 3,0 0,-1 -3,0 z m -13,2 0,1 3,0 0,-1 -3,0 z m 4,0 0,1 5,0 0,-1 -5,0 z m 6,0 0,1 2,0 0,-1 -2,0 z m 3,0 0,1 3,0 0,-1 -3,0 z m -13,2 0,1 3,0 0,-1 -3,0 z m 4,0 0,1 5,0 0,-1 -5,0 z m 6,0 0,1 2,0 0,-1 -2,0 z m 3,0 0,1 3,0 0,-1 -3,0 z m -13,2 0,1 3,0 0,-1 -3,0 z m 4,0 0,1 5,0 0,-1 -5,0 z m 6,0 0,1 2,0 0,-1 -2,0 z m 3,0 0,1 3,0 0,-1 -3,0 z m -13,2 0,1 3,0 0,-1 -3,0 z m 4,0 0,1 5,0 0,-1 -5,0 z m 6,0 0,1 2,0 0,-1 -2,0 z m 3,0 0,1 3,0 0,-1 -3,0 z"
       id="rect3004-7"
       inkscape:connector-curvature="0" />
    <path
       style="fill:#008000;fill-opacity:1;fill-rule:nonzero;stroke:none"
       d="M 0,1 0,2 16,2 16,1 z"
       transform="translate(84.25,838.21875)"
       id="rect3004-4"
       inkscape:connector-curvature="0"
       sodipodi:nodetypes="ccccc" />
    <path
       style="fill:#373737;fill-opacity:1;fill-rule:nonzero;stroke:none"
       d="M 16 0 L 15 1 L 15 15 L 1 15 L 0 16 L 16 16 L 16 0 z "
       transform="translate(84.25,838.21875)"
       id="rect3003-1" />
    <path
       style="fill:#979797;fill-opacity:1;fill-rule:nonzero;stroke:none"
       d="M 0,0 0,16 1,15 1,1 15,1 16,0 z M 15,1 z M 1,15 z"
       id="rect3003"
       inkscape:connector-curvature="0"
       sodipodi:nodetypes="ccccccccccc"
       transform="translate(84.25,838.21875)" />
  </g>
</svg>
