<?xml version="1.0" encoding="UTF-8" standalone="no"?>
<!-- Created with Inkscape (http://www.inkscape.org/) -->

<svg
   xmlns:dc="http://purl.org/dc/elements/1.1/"
   xmlns:cc="http://creativecommons.org/ns#"
   xmlns:rdf="http://www.w3.org/1999/02/22-rdf-syntax-ns#"
   xmlns:svg="http://www.w3.org/2000/svg"
   xmlns="http://www.w3.org/2000/svg"
   xmlns:sodipodi="http://sodipodi.sourceforge.net/DTD/sodipodi-0.dtd"
   xmlns:inkscape="http://www.inkscape.org/namespaces/inkscape"
   width="414.375"
   height="230.15625"
   id="svg2"
   version="1.1"
   inkscape:version="0.48.2 r9819"
   sodipodi:docname="logo-curves.svg">
  <defs
     id="defs4" />
  <sodipodi:namedview
     id="base"
     pagecolor="#ffffff"
     bordercolor="#666666"
     borderopacity="1.0"
     inkscape:pageopacity="0.0"
     inkscape:pageshadow="2"
     inkscape:zoom="2"
     inkscape:cx="373.69747"
     inkscape:cy="91.87419"
     inkscape:document-units="px"
     inkscape:current-layer="layer1"
     showgrid="false"
     showguides="true"
     inkscape:guide-bbox="true"
     inkscape:window-width="1920"
     inkscape:window-height="1028"
     inkscape:window-x="-8"
     inkscape:window-y="-8"
     inkscape:window-maximized="1"
     fit-margin-top="10"
     fit-margin-left="10"
     fit-margin-right="10"
     fit-margin-bottom="10" />
  <metadata
     id="metadata7">
    <rdf:RDF>
      <cc:Work
         rdf:about="">
        <dc:format>image/svg+xml</dc:format>
        <dc:type
           rdf:resource="http://purl.org/dc/dcmitype/StillImage" />
        <dc:title />
      </cc:Work>
    </rdf:RDF>
  </metadata>
  <g
     inkscape:label="Layer 1"
     inkscape:groupmode="layer"
     id="layer1"
     transform="translate(-258.47501,-466.28125)">
    <path
       style="fill:#000000;fill-opacity:1;fill-rule:nonzero;stroke:none"
       d="m 441.50626,491.78125 c -18.55819,0.35664 -36.35121,1.13297 -53,2.25 3.07466,17.95069 5.06915,38.21303 5.40625,53.53125 -16.41797,1.01 -31.57605,2.37712 -45.0625,4 -3.31048,-18.71417 -10.89879,-33.60454 -14,-52.1875 -18.21745,2.32218 -39.76965,6.99678 -57.03125,13.1875 20.52254,43.64962 37.16347,94.49779 39.40625,140.34375 0,0.74629 0.57761,1.78722 2.375,3.03125 1.79739,1.24403 4.63347,2.5387 8.34375,3.78125 7.42053,2.48511 18.34701,4.77504 31.84375,6.6875 67.81038,6.96185 139.88242,9.89235 211.7499,0 13.49674,-1.91246 24.42322,-4.20239 31.84375,-6.6875 3.71028,-1.24255 6.54636,-2.53722 8.34375,-3.78125 1.79739,-1.24403 2.375,-2.28496 2.375,-3.03125 5.03179,-48.83203 17.66215,-99.24966 39.40625,-140.34375 -17.2616,-6.19072 -38.8138,-10.86532 -57.03125,-13.1875 -3.10121,18.58296 -10.68952,33.47333 -14,52.1875 -13.48645,-1.62288 -28.64453,-2.99 -45.0625,-4 0.3371,-15.31822 2.33159,-35.58056 5.40625,-53.53125 -16.64879,-1.11703 -34.44181,-1.89336 -53,-2.25 -0.73314,18.24751 -0.10911,38.63464 -0.28125,53.90625 -15.9678,-0.28904 -31.9249,-0.29069 -47.75,0 -0.17214,-15.27161 0.45189,-35.65874 -0.28125,-53.90625 z"
       id="path3931"
       inkscape:connector-curvature="0"
       sodipodi:nodetypes="cccccccssccssccccccccccc" />
    <path
       inkscape:connector-curvature="0"
       style="fill:#008000;fill-opacity:1;fill-rule:nonzero;stroke:none"
       d="m 443.75626,476.28125 c -19.00508,0.467 -42.99824,1.42443 -59.625,2.65625 2.02463,3.14441 2.59005,6.1315 3.21875,9.375 16.99981,-1.14449 35.23095,-1.91459 54.1875,-2.28125 0.20309,-3.22816 0.26756,-6.7191 2.21875,-9.75 z m 43.8125,0 c 1.95119,3.0309 2.01566,6.52184 2.21875,9.75 18.95655,0.36666 37.18769,1.13676 54.1875,2.28125 0.6287,-3.2435 1.19412,-6.23059 3.21875,-9.375 -16.62676,-1.23182 -40.61992,-2.18925 -59.625,-2.65625 z m -152.96875,8.125 c -22.79254,3.30758 -45.04251,8.55195 -66.125,15.0625 2.25455,1.19988 4.92595,5.48594 6.59375,8.1875 19.07261,-6.80085 40.3082,-11.60532 59.34375,-14.03125 -0.17927,-3.39911 -0.48575,-5.83419 0.1875,-9.21875 z m 262.125,0 c 0.67325,3.38456 0.36677,5.81964 0.1875,9.21875 19.03555,2.42593 40.27114,7.2304 59.34375,14.03125 1.6678,-2.70156 4.3392,-6.98762 6.59375,-8.1875 -21.08249,-6.51055 -43.33246,-11.75492 -66.125,-15.0625 z m 17.0625,175.5 c -0.21507,0.16665 -0.45604,0.3398 -0.6875,0.5 -2.19201,1.51716 -5.22657,2.89239 -9.09375,4.1875 -7.73435,2.59022 -18.7415,4.88507 -32.34375,6.8125 -27.20449,3.85486 -64.71258,6.21475 -106.125,6.21875 l -0.0937,0 c -41.41252,-0.004 -78.85806,-2.36393 -106.06255,-6.21875 -13.60225,-1.92741 -24.67189,-4.2223 -32.40625,-6.8125 -3.86717,-1.2951 -6.90174,-2.67035 -9.09375,-4.1875 -0.19897,-0.13771 -0.37554,-0.29503 -0.5625,-0.4375 0.0982,1.89077 0.008,3.54903 -0.21875,5.25 0,11.71125 66.4394,21.21148 148.40625,21.21875 l 0.0937,0 c 81.967,-0.007 148.4063,-9.5075 148.4063,-21.21875 -0.36187,-1.74883 -0.24322,-3.69543 -0.2188,-5.3125 z"
       id="path3963"
       sodipodi:nodetypes="cccccccccccccccccccccsssccsssccccccc" />
    <path
       style="font-size:79.21691895px;font-style:normal;font-variant:normal;font-weight:normal;font-stretch:normal;text-align:center;line-height:125%;letter-spacing:0px;word-spacing:0px;text-anchor:middle;fill:#ffffff;fill-opacity:1;stroke:none;font-family:BankGothic RUSS;-inkscape-font-specification:BankGothic RUSS"
       d="m 110.46875,103.4375 c -3.93251,4e-5 -6.60557,0.68295 -8.0625,2.0625 -1.36672,1.39253 -2.06252,3.91917 -2.0625,7.59375 l 0,21.5625 c -2e-5,3.68751 0.69578,6.20127 2.0625,7.59375 1.46982,1.3667 4.14288,2.0625 8.0625,2.0625 l 24.4375,0 c 3.93242,0 6.61838,-0.6958 8.0625,-2.0625 1.37953,-1.37958 2.06243,-3.89335 2.0625,-7.59375 l 0,-5.82813 -9.53125,0 0,7.79688 -25.65625,0 0,-25.90625 25.65625,0 0,7.03125 9.53125,0 0,-4.65625 c -7e-5,-3.68747 -0.68297,-6.21412 -2.0625,-7.59375 -1.44412,-1.37955 -4.13008,-2.06246 -8.0625,-2.0625 z m 63.40625,0 -23.03125,40.875 9.40625,0 4.75,-8.96875 25.90625,0 4.90625,8.96875 10.6875,0 -23.4375,-40.875 z m 40.53125,0 0,40.875 9.34375,0 0,-15.90625 25.5625,0 c 3.24907,2e-5 5.64767,-0.66104 7.15625,-1.9375 1.41821,-1.25064 2.12493,-3.2408 2.125,-6 l 0,-9.125 c -7e-5,-2.81072 -0.70679,-4.84305 -2.125,-6.09375 -1.54726,-1.22483 -3.94586,-1.81246 -7.15625,-1.8125 z m 64.78125,0 c -3.95829,4e-5 -6.65168,0.68295 -8.03125,2.0625 -1.41829,1.35385 -2.12503,3.88049 -2.125,7.59375 l 0,4.53125 c -3e-5,3.71331 0.70671,6.23997 2.125,7.59375 1.39246,1.36672 4.08585,2.06252 8.03125,2.0625 l 25.5,0 0,9.34375 -28.90625,0 0,-3.95313 -8.40625,0 0,1.98438 c 0,3.72619 0.70671,6.23995 2.125,7.59375 1.39246,1.3667 4.09677,2.0625 8.09375,2.0625 l 25.28125,0 c 3.97111,0 6.68635,-0.6958 8.15625,-2.0625 1.36664,-1.39248 2.03119,-3.90624 2.03125,-7.59375 l 0,-5.65625 c -6e-5,-3.6746 -0.66461,-6.20124 -2.03125,-7.59375 -1.4699,-1.36667 -4.18514,-2.03122 -8.15625,-2.03125 l -25.53125,0 0,-8.8125 26.78125,0 0,3.6875 8.40625,0 0,-1.875 c -7e-5,-3.31356 -0.73804,-5.64069 -2.15625,-6.96875 -1.4828,-1.32797 -4.14493,-1.96871 -8,-1.96875 z M 223.75,110.5 l 21.375,0 c 1.66319,4e-5 2.80021,0.21048 3.40625,0.6875 0.58015,0.47709 0.87494,1.35056 0.875,2.5625 l 0,4.34375 c -6e-5,1.212 -0.29485,2.05422 -0.875,2.53125 -0.60604,0.47708 -1.74306,0.71877 -3.40625,0.71875 l -21.375,0 z m -45.59375,0.84375 8.875,16.65625 -17.90625,0 z m -77.5625,43.5625 0,21.40625 4.46875,0 0,-11.59375 c 0,-0.60782 -0.004,-1.08802 -0.0312,-1.5 -0.0135,-0.19585 -0.0533,-0.50102 -0.0937,-0.90625 -0.0406,-0.40521 -0.049,-0.7256 -0.0625,-0.96875 0.16208,0.19587 0.42329,0.45457 0.78125,0.8125 0.2161,0.21613 0.54749,0.51455 1,0.90625 l 15.71875,13.25 3.40625,0 0,-21.40625 -4.46875,0 0,11.25 c -1e-4,0.44576 0.004,0.82533 0.0312,1.15625 0.027,0.36471 0.0422,0.70794 0.0625,1.0625 0.0203,0.35458 0.0533,0.85417 0.0937,1.46875 -0.43902,-0.49301 -0.78563,-0.87259 -1.0625,-1.15625 -0.30395,-0.30391 -0.76044,-0.69023 -1.375,-1.15625 L 104,154.90625 z m 188.03125,0 0,21.40625 4.90625,0 0,-8.09375 4.71875,0 8.625,8.09375 7.15625,0 -9.875,-8.09375 2.78125,0 c 1.70865,1e-5 2.93529,-0.33813 3.71875,-1 0.74287,-0.66185 1.12497,-1.71771 1.125,-3.15625 l 0,-5 c -3e-5,-1.47229 -0.38213,-2.53237 -1.125,-3.1875 -0.81048,-0.64157 -2.03712,-0.96873 -3.71875,-0.96875 z m 4.90625,3.6875 11.1875,0 c 0.87119,2e-5 1.46379,0.12513 1.78125,0.375 0.30388,0.2499 0.46872,0.70892 0.46875,1.34375 l 0,2.5625 c -3e-5,0.62135 -0.16487,1.04911 -0.46875,1.3125 -0.31746,0.24989 -0.91006,0.37502 -1.78125,0.375 l -11.1875,0 z m -154,0.15625 -10.4375,17.5625 4.28125,0 2.21875,-3.84375 11.59375,0 2.21875,3.84375 4.8125,0 L 143.625,158.75 z m 11.71875,0 10.625,17.5625 2.9375,0 L 175,158.75 l -4.4375,0 -7,12.75 -7.4375,-12.75 z m 27.03125,0 0,17.5625 4.25,0 0,-17.5625 z m 13.6875,0 c -1.78298,2e-5 -2.97242,0.29421 -3.59375,0.875 -0.63485,0.59434 -0.96875,1.6874 -0.96875,3.28125 l 0,9.25 c 0,1.60738 0.3339,2.70044 0.96875,3.28125 0.62133,0.58082 1.81077,0.875 3.59375,0.875 l 12.6875,0 c 1.77619,0 2.99013,-0.29418 3.625,-0.875 0.63482,-0.59432 0.96872,-1.68738 0.96875,-3.28125 l 0,-6.0625 -11.1875,0 0,3.125 6.96875,0 0,3.71875 -13.34375,0 0,-10.96875 13.34375,0 0,1.54687 4.21875,0 0,-0.79687 c -3e-5,-1.49255 -0.33393,-2.53317 -0.96875,-3.09375 -0.63487,-0.58079 -1.84881,-0.87498 -3.625,-0.875 z m 29.9375,0 -10.40625,17.5625 4.28125,0 2.1875,-3.84375 11.625,0 2.1875,3.84375 4.8125,0 L 226,158.75 z m 13.5625,0 0,3.15625 8.46875,0 0,14.40625 4.25,0 0,-14.40625 8.53125,0 0,-3.15625 z m 29.71875,0 c -1.80999,2e-5 -3.03492,0.29421 -3.65625,0.875 -0.60784,0.56733 -0.90625,1.66038 -0.90625,3.28125 l 0,9.25 c 0,1.62764 0.29841,2.7207 0.90625,3.28125 0.62133,0.58082 1.84626,0.875 3.65625,0.875 l 13.5625,0 c 1.77619,0 2.99013,-0.29418 3.625,-0.875 0.63482,-0.59432 0.93747,-1.68738 0.9375,-3.28125 l 0,-9.25 c -3e-5,-1.60736 -0.29845,-2.70041 -0.90625,-3.28125 -0.63488,-0.58079 -1.85305,-0.87498 -3.65625,-0.875 z m -123.84375,3.21875 4.125,7.28125 -8.0625,0 z m 82.375,0 4.125,7.28125 -8.0625,0 z m 41.1875,0 14.15625,0 0,10.96875 -14.15625,0 z"
       transform="translate(258.47501,466.28125)"
       id="path2988"
       inkscape:connector-curvature="0"
       sodipodi:nodetypes="ccsscsscccccccccccccccccccccccccccsccccccccsscscccccscssccccscccccccccccccccccccccccccscccccccccccscccccccccccccscccccccccccccccccccccccccccccccccccccccsscssccccccccccccccccccccccccccccccccccccsscssccccccccccccccccccc" />
  </g>
</svg>
